PathFileType	3	(X/Y/Z)	D:\VICON_DB\Goncalves\Pilot01\09-03-2026\walking_02.trc
DataRate	CameraRate	NumFrames	NumMarkers	Units	OrigDataRate	OrigDataStartFrame	OrigNumFrames
200.0	200.0	4	34	mm	200.0	163	1300	
Frame#	Time	LASI			RASI			LPSI			RPSI			LTHI			LTHAP			LTHAD			LKNE			LKNM			LTIB			LTIAP			LTIAD			LANK			LMED			LHEE			LTOE			LFMH			LSMH			LVMH			RTHI			RTHAP			RTHAD			RKNE			RKNM			RTIB			RTIAP			RTIAD			RANK			RMED			RHEE			RTOE			RFMH			RSMH			RVMH			
		X1	Y1	Z1	X2	Y2	Z2	X3	Y3	Z3	X4	Y4	Z4	X5	Y5	Z5	X6	Y6	Z6	X7	Y7	Z7	X8	Y8	Z8	X9	Y9	Z9	X10	Y10	Z10	X11	Y11	Z11	X12	Y12	Z12	X13	Y13	Z13	X14	Y14	Z14	X15	Y15	Z15	X16	Y16	Z16	X17	Y17	Z17	X18	Y18	Z18	X19	Y19	Z19	X20	Y20	Z20	X21	Y21	Z21	X22	Y22	Z22	X23	Y23	Z23	X24	Y24	Z24	X25	Y25	Z25	X26	Y26	Z26	X27	Y27	Z27	X28	Y28	Z28	X29	Y29	Z29	X30	Y30	Z30	X31	Y31	Z31	X32	Y32	Z32	X33	Y33	Z33	X34	Y34	Z34	
163	0.81	414.13962	872.8399	-2716.2632	153.42102	872.59814	-2697.1992				227.73248	896.39246	-2915.384	423.36182	665.50226	-2730.5244	445.37411	735.85144	-2756.0205	432.86432	600.58881	-2775.865	399.50534	450.10968	-2831.314				392.80161	255.21309	-2896.4348	273.73639	457.78644	-2820.2605	358.58984	227.93964	-2859.0957	345.28619	59.178085	-2948.6157				300.07935	59.551407	-3000.6787	315.65979	63.391014	-2876.176	283.0795	36.396259	-2823.8127				365.39664	20.047819	-2831.3008	113.70387	602.13751	-2702.3706	132.03398	731.34949	-2687.6357	161.57138	644.38611	-2657.7805	127.95925	462.70374	-2733.1604				108.14712	282.67889	-2813.5552	160.61977	312.12726	-2756.855	158.17844	238.93547	-2797.9004	130.03065	82.125526	-2944.6138				176.83913	88.647369	-2979.1257	152.19128	66.188248	-2851.3269	173.64085	41.906357	-2812.3423				103.26359	14.899733	-2831.2185
164	0.815	414.42441	872.55994	-2715.3884	153.73662	872.48004	-2696.1794				228.23901	896.53516	-2914.2549	423.59042	665.19379	-2729.8892	445.56946	735.57849	-2755.3867	433.04077	600.32629	-2775.3328	399.59622	449.86331	-2830.825				392.80206	255.12827	-2896.1133	273.85239	457.5314	-2819.7258	358.56171	227.8031	-2858.7727	345.25363	59.168823	-2948.593				300.08002	59.580685	-3000.6865	315.60199	63.3811	-2876.2014	283.03949	36.393501	-2823.8428				365.35883	20.087391	-2831.3425	114.09364	602.54071	-2699.5999	132.31596	731.81934	-2685.9409	162.18083	645.13525	-2655.4788	128.52107	462.96994	-2729.4314				108.79607	283.53564	-2810.8169	161.01424	312.43436	-2753.9131	158.69989	239.60956	-2795.3574	130.66824	84.180893	-2943.489				177.60339	91.120499	-2977.864	152.64436	67.056595	-2850.3667	173.90855	42.153954	-2811.7461				103.77918	15.590428	-2831.156
165	0.82	414.68661	872.26172	-2714.4958	154.0238	872.36365	-2695.1721				228.75789	896.70752	-2913.1389	423.79825	664.87842	-2729.2407	445.74411	735.29919	-2754.7305	433.20743	600.05713	-2774.7854	399.67145	449.6257	-2830.3401				392.7933	255.04393	-2895.782	273.94019	457.29614	-2819.1965	358.52689	227.66783	-2858.4495	345.21161	59.152458	-2948.5615				300.08224	59.610004	-3000.696	315.54041	63.372597	-2876.228	282.99823	36.391045	-2823.8743				365.31921	20.129335	-2831.3855	114.4511	602.98969	-2696.7798	132.56741	732.3316	-2684.2585	162.77052	645.94342	-2653.1743	129.08284	463.28598	-2725.6094				109.47028	284.44144	-2807.9661	161.4725	312.79944	-2750.8179	159.27377	240.34135	-2792.6875	131.36456	86.311554	-2942.2537				178.42458	93.667015	-2976.4836	153.14406	67.984192	-2849.3101	174.21588	42.451294	-2811.0515				104.32703	16.351454	-2831.0103
166	0.825	414.92456	871.94568	-2713.584	154.27975	872.24939	-2694.175				229.28526	896.91034	-2912.0359	423.9838	664.55798	-2728.5796	445.89615	735.01257	-2754.0554	433.36276	599.78369	-2774.2244	399.7309	449.4007	-2829.8635				392.77679	254.96111	-2895.4421	274.00388	457.07828	-2818.6738	358.48755	227.53627	-2858.1289	345.16193	59.130428	-2948.5222				300.08652	59.640297	-3000.707	315.47589	63.365662	-2876.2566	282.95676	36.388676	-2823.907				365.27835	20.173113	-2831.4297	114.77157	603.48474	-2693.9153	132.7906	732.88245	-2682.5881	163.33723	646.80951	-2650.8752	129.63829	463.65253	-2721.6975				110.1665	285.39276	-2804.9993	161.99509	313.22238	-2747.5625	159.8979	241.12488	-2789.8896	132.12154	88.506271	-2940.895				179.3031	96.271355	-2974.9717	153.68855	68.970528	-2848.1426	174.56389	42.803154	-2810.24				104.90512	17.182827	-2830.759
